<?xml version="1.0" standalone="no"?>
<!DOCTYPE svg PUBLIC "-//W3C//DTD SVG 20010904//EN"
 "http://www.w3.org/TR/2001/REC-SVG-20010904/DTD/svg10.dtd">
<svg version="1.0" xmlns="http://www.w3.org/2000/svg"
 width="1030.000000pt" height="296.000000pt" viewBox="0 0 1030.000000 296.000000"
 preserveAspectRatio="xMidYMid meet">

<g transform="translate(0.000000,296.000000) scale(0.100000,-0.100000)"
fill="#18348c" stroke="none">
<path d="M1022 2870 c-38 -16 -110 -98 -142 -163 -64 -131 -74 -195 -75 -472
l-1 -250 -124 -102 c-302 -247 -355 -343 -355 -643 1 -143 3 -161 28 -235 95
-272 283 -421 508 -402 l68 6 7 -56 c10 -79 0 -141 -36 -225 -33 -76 -67 -120
-112 -144 -40 -21 -117 -18 -155 6 -38 23 -43 40 -12 40 31 0 72 28 99 68 34
49 36 160 3 212 -56 90 -181 94 -254 7 -75 -90 -58 -266 35 -359 73 -74 215
-96 306 -49 80 42 127 87 162 159 32 65 33 71 37 215 l3 148 41 20 c53 28 136
112 171 174 33 59 76 203 76 252 l0 35 40 -36 c22 -20 48 -36 58 -36 9 0 37
25 62 56 25 31 57 67 73 80 l28 24 42 -52 c23 -28 65 -67 92 -86 44 -30 56
-33 96 -30 63 6 163 59 167 88 5 34 -12 45 -39 26 -13 -9 -37 -16 -53 -16 -30
0 -61 28 -188 168 -26 29 -55 52 -65 52 -10 0 -58 -41 -107 -92 l-89 -93 6 40
c4 22 14 122 23 222 l16 183 -22 35 c-28 46 -61 67 -97 63 l-28 -3 -5 -260
c-3 -181 -7 -245 -13 -210 -36 222 -152 352 -323 358 l-59 2 -3 68 -3 68 53
58 c127 139 216 357 238 583 18 187 -28 403 -103 486 -22 23 -38 26 -75 12z
m72 -299 c13 -15 18 -37 17 -88 0 -80 -22 -152 -74 -246 -36 -63 -140 -187
-157 -187 -11 0 -2 208 12 290 13 78 59 184 95 222 32 34 81 38 107 9z m-254
-955 c0 -39 -4 -47 -33 -65 -52 -32 -135 -125 -157 -175 -24 -56 -40 -143 -40
-215 1 -148 75 -311 162 -357 36 -19 45 -18 57 5 8 15 5 25 -19 49 -37 39 -55
82 -75 177 -18 87 -19 184 -4 239 15 53 57 114 91 132 26 13 28 13 32 -8 6
-28 66 -673 66 -707 0 -23 -1 -23 -87 -19 -70 4 -99 10 -141 32 -155 79 -244
268 -214 449 14 83 66 199 122 273 50 66 214 234 229 234 6 0 11 -18 11 -44z
m145 -206 c100 -62 171 -296 144 -472 -13 -88 -49 -168 -91 -203 -17 -14 -33
-24 -35 -21 -4 4 -72 666 -73 704 0 17 18 15 55 -8z"/>
<path d="M7155 2048 c-127 -24 -234 -107 -296 -229 -51 -101 -41 -195 27 -248
80 -63 195 -38 238 53 47 99 -9 225 -107 242 -37 7 -37 7 -20 26 45 51 187 85
307 76 120 -10 282 -121 339 -234 103 -203 76 -525 -65 -771 -111 -192 -186
-272 -422 -443 -102 -74 -186 -138 -186 -142 -1 -40 235 86 399 212 121 94
200 176 266 275 144 218 215 439 202 634 -19 299 -169 493 -422 546 -78 16
-184 18 -260 3z"/>
<path d="M7927 1723 c-4 -3 -7 -139 -7 -301 l0 -294 34 -34 c19 -19 43 -34 53
-34 12 0 40 26 72 65 86 105 79 105 169 14 61 -60 86 -79 116 -84 71 -14 206
46 206 90 0 32 -13 38 -46 20 -62 -32 -73 -25 -224 143 -32 37 -63 62 -75 62
-12 0 -53 -34 -102 -86 l-83 -87 0 34 c0 19 7 111 16 205 10 93 14 183 10 199
-11 42 -68 95 -103 95 -16 0 -33 -3 -36 -7z"/>
<path d="M2537 1703 c-9 -8 -9 -496 0 -585 5 -64 7 -68 30 -68 14 0 37 13 54
29 l29 29 68 -35 c78 -40 167 -53 225 -34 49 17 88 64 86 105 -2 17 3 47 11
67 16 45 4 85 -34 113 -37 28 -207 35 -283 13 -28 -9 -54 -13 -57 -9 -4 3 -3
45 0 92 4 48 3 118 -1 156 -6 59 -11 72 -40 101 -31 31 -72 43 -88 26z m343
-481 c37 -14 45 -22 45 -42 0 -22 -5 -25 -43 -28 -47 -4 -141 20 -180 46 l-25
16 29 13 c41 17 121 15 174 -5z"/>
<path d="M3073 1694 c-3 -9 -3 -113 0 -232 4 -120 7 -261 7 -314 l0 -98 27 0
c17 0 39 12 59 31 l32 31 29 -20 c70 -50 190 -75 254 -53 62 21 82 44 90 102
5 30 11 69 15 87 8 42 -10 86 -44 102 -44 22 -222 25 -278 6 -26 -9 -49 -16
-50 -16 -1 0 -4 72 -6 161 l-3 161 -37 34 c-40 36 -84 45 -95 18z m365 -478
c25 -13 32 -23 30 -39 -3 -20 -8 -22 -70 -20 -50 1 -82 8 -125 28 l-58 27 30
14 c39 19 149 13 193 -10z"/>
<path d="M4193 1698 c-4 -7 -8 -65 -9 -128 -1 -89 -5 -123 -19 -148 -17 -33
-17 -35 4 -63 18 -24 21 -42 21 -116 0 -83 2 -91 33 -138 41 -64 67 -77 138
-72 79 7 197 69 221 116 10 19 16 37 13 39 -2 2 -49 -6 -104 -18 -119 -26
-143 -24 -152 10 -10 36 -10 123 0 138 4 8 41 23 82 34 87 23 101 33 97 67 -3
25 -6 26 -78 29 -94 4 -104 11 -97 79 8 77 -6 116 -55 152 -44 32 -81 40 -95
19z"/>
<path d="M9192 1650 c-41 -25 -47 -40 -32 -84 21 -65 98 -69 154 -7 22 24 25
73 6 95 -18 23 -88 20 -128 -4z"/>
<path d="M9732 1383 c-18 -8 -43 -28 -56 -44 -21 -25 -26 -26 -37 -13 -40 49
-138 55 -182 11 l-21 -21 28 -7 c57 -16 67 -33 95 -172 14 -64 31 -87 66 -87
38 0 52 24 59 102 11 116 7 111 90 103 l72 -6 27 63 c26 59 26 64 10 75 -24
18 -112 16 -151 -4z"/>
<path d="M8788 1379 c-57 -8 -140 -41 -156 -62 -5 -7 -14 -46 -20 -87 -13 -90
-4 -117 51 -143 129 -61 337 -38 415 46 21 22 23 32 19 98 -5 68 -8 76 -40
105 -35 33 -38 33 -182 48 -16 1 -55 -1 -87 -5z m188 -150 c24 -6 44 -15 44
-19 0 -4 -16 -15 -36 -25 -50 -23 -226 -27 -268 -5 -38 19 -43 38 -14 49 33
14 220 13 274 0z"/>
<path d="M9189 1349 c-16 -17 -32 -42 -35 -54 -8 -33 12 -152 30 -180 16 -24
110 -65 150 -65 39 0 116 31 131 53 17 24 20 73 5 82 -5 3 -10 2 -10 -4 0 -6
-17 -15 -38 -22 -31 -9 -45 -8 -74 4 -35 15 -36 16 -41 84 -3 37 -5 82 -4 98
2 29 0 30 -41 33 -37 3 -47 -1 -73 -29z"/>
<path d="M2159 1345 c-100 -31 -170 -100 -176 -174 -9 -99 53 -148 176 -137
57 5 91 17 204 74 4 2 7 -7 7 -20 0 -43 22 -62 64 -54 31 6 40 14 52 42 8 19
12 40 8 46 -4 6 -7 52 -8 102 l-1 91 -55 22 c-65 27 -197 30 -271 8z m221 -92
c0 -15 -16 -31 -46 -46 -33 -17 -163 -47 -203 -47 -23 0 -24 1 -6 20 10 11 45
33 78 50 46 23 74 30 119 30 32 0 58 -3 58 -7z"/>
<path d="M3795 1346 c-62 -20 -97 -41 -140 -86 -37 -38 -40 -45 -40 -98 1 -78
22 -107 87 -122 70 -17 139 -7 225 34 72 35 73 35 73 12 0 -12 6 -31 14 -41
12 -16 19 -18 52 -10 55 14 66 41 53 134 -7 49 -7 82 0 102 9 25 7 31 -12 44
-68 44 -222 59 -312 31z m215 -101 c0 -8 -17 -24 -39 -34 -39 -21 -166 -51
-210 -51 -23 0 -24 1 -6 20 10 11 45 33 78 50 46 23 74 30 119 30 44 0 58 -3
58 -15z"/>
<path d="M4743 1346 c-65 -21 -111 -53 -111 -79 0 -12 -3 -52 -7 -90 -7 -56
-5 -70 9 -86 30 -33 122 -56 226 -56 81 0 103 4 150 26 98 47 105 56 102 141
-2 68 -5 75 -36 106 -18 19 -50 37 -72 42 -57 14 -212 11 -261 -4z m252 -139
l50 -13 -26 -17 c-58 -38 -230 -48 -293 -16 -72 35 -27 57 114 58 58 0 127 -5
155 -12z"/>
<path d="M5176 1339 c-39 -31 -34 -49 14 -49 50 0 59 -15 70 -128 11 -101 27
-122 91 -122 l39 0 39 83 c69 143 97 156 145 68 53 -99 139 -155 236 -156 85
0 134 26 138 73 3 32 3 32 -35 26 -51 -8 -105 29 -207 141 -69 76 -81 85 -112
85 -49 0 -69 -12 -146 -88 -47 -46 -68 -61 -68 -49 0 28 -37 93 -66 116 -36
28 -102 28 -138 0z"/>
</g>
</svg>
